# xmcd CD database file
#
# Track frame offsets:
#	150
#	10888
#	25755
#	45736
#	58551
#	72167
#	88652
#	106482
#	124958
#	144853
#	161581
#	176634
#	191542
#	209750
#	222804
#	236183
#	251333
#	268419
#	288565
#	306910
#
# Disc length: 4373 seconds
#
# Revision: 1
# Processed by: cddbd v1.5.2PL0 Copyright (c) Steve Scherf et al.
# Submitted via: CDex 1.51
#
DISCID=2f111314
DTITLE=Sissel - De Beste 1986 - 2006 CD1
DYEAR=2006
DGENRE=New Age
TTITLE0=Vestland, Vestland
TTITLE1=Eg Ser
TTITLE2=Kjaerlighet
TTITLE3=Summertime
TTITLE4=Se Over Fjellet
TTITLE5=Solitaire
TTITLE6=Innerst I Sjelen
TTITLE7=Amazing Grace
TTITLE8=Se Ilden Lyse
TTITLE9=Tidin Rennur (Tiden Renner)
TTITLE10=Seterjentens Sondag (Med Arve Tellefsen)
TTITLE11=Eg Veit I Himmerik Ei Borg
TTITLE12=Den Forsta Gong Jag Sag Dig
TTITLE13=O Mio Babbino Caro
TTITLE14=Sancta Maria
TTITLE15=Lascia Che Io Pianga
TTITLE16=Koppangen
TTITLE17=Sarah's Song
TTITLE18=Adagio
TTITLE19=Silent Night
EXTD=YEAR: 2006
EXTT0=
EXTT1=
EXTT2=
EXTT3=
EXTT4=
EXTT5=
EXTT6=
EXTT7=
EXTT8=
EXTT9=
EXTT10=
EXTT11=
EXTT12=
EXTT13=
EXTT14=
EXTT15=
EXTT16=
EXTT17=
EXTT18=
EXTT19=
PLAYORDER=
